<svg width="24" height="24" viewBox="0 0 24 24" fill="none" xmlns="http://www.w3.org/2000/svg">
<path d="M7 17.2605V6.74248C6.99995 6.56653 7.04632 6.39368 7.13444 6.24138C7.22256 6.08908 7.3493 5.96273 7.50188 5.87508C7.65445 5.78744 7.82744 5.7416 8.0034 5.74219C8.17935 5.74279 8.35203 5.7898 8.504 5.87848L17.519 11.1385C17.6698 11.2266 17.795 11.3527 17.8819 11.5042C17.9689 11.6557 18.0147 11.8273 18.0147 12.002C18.0147 12.1767 17.9689 12.3483 17.8819 12.4998C17.795 12.6513 17.6698 12.7774 17.519 12.8655L8.504 18.1245C8.35203 18.2132 8.17935 18.2602 8.0034 18.2608C7.82744 18.2614 7.65445 18.2155 7.50188 18.1279C7.3493 18.0402 7.22256 17.9139 7.13444 17.7616C7.04632 17.6093 6.99995 17.4364 7 17.2605Z" fill="#F57E5D"/>
</svg>
